<mxfile host="app.diagrams.net" modified="2023-08-07T15:16:00.959Z" agent="Mozilla/5.0 (Windows NT 10.0; Win64; x64) AppleWebKit/537.36 (KHTML, like Gecko) Chrome/115.0.0.0 Safari/537.36" version="21.6.6" etag="DmWPFxoR-TD0tvJ0Y90T" type="github">
  <diagram name="Page-1" id="R57Mb9-A6zRh2QvA6tmR">
    <mxGraphModel>
      <root>
        <mxCell id="0" />
        <mxCell id="1" parent="0" />
      </root>
    </mxGraphModel>
  </diagram>
</mxfile>
